<svg width="393" height="373" viewBox="0 0 393 373" fill="none" xmlns="http://www.w3.org/2000/svg">
<g filter="url(#filter0_d_2072_84)">
<mask id="path-1-inside-1_2072_84" fill="white">
<ellipse cx="196.941" cy="185.84" rx="157.513" ry="157.485" transform="rotate(-0.1559 196.941 185.84)"/>
</mask>
<path d="M56.4549 186.222C56.2436 108.569 119.02 45.5369 196.559 45.3259L198.18 641.324C449.703 640.639 653.137 436.207 652.453 184.601L56.4549 186.222ZM196.559 45.3259C274.097 45.1149 337.216 107.804 337.427 185.458L-258.57 187.08C-257.886 438.686 -53.3416 642.008 198.18 641.324L196.559 45.3259ZM337.427 185.458C337.639 263.112 274.862 326.143 197.323 326.354L195.702 -269.643C-55.8203 -268.959 -259.255 -64.5269 -258.57 187.08L337.427 185.458ZM197.323 326.354C119.785 326.565 56.6662 263.876 56.4549 186.222L652.453 184.601C651.768 -67.0058 447.224 -270.328 195.702 -269.643L197.323 326.354Z" fill="url(#paint0_radial_2072_84)" mask="url(#path-1-inside-1_2072_84)"/>
</g>
<g filter="url(#filter1_f_2072_84)">
<path d="M20 189.246L33.8207 185.764L41.6874 172.999L47.985 185.725L57.2423 189.145L48.0101 194.945L42.2477 204.9L33.8458 194.984L20 189.246Z" fill="#FFA20D"/>
</g>
<g filter="url(#filter2_f_2072_84)">
<path d="M46.7446 183.637L44.8236 188.083L49.2903 188.009L45.0627 190.093L51.3531 196.528L43.843 191.858L43.3901 196.549L41.8791 192.345L38.4004 195.715L40.3213 191.269L31.0335 191.893L40.0823 189.26L37.2441 185.995L41.302 187.494L41.2734 177L43.2659 187.007L46.7446 183.637Z" fill="white"/>
</g>
<g filter="url(#filter3_f_2072_84)">
<path d="M83.0322 248.993L73.5045 260.091L74.4621 275.449L61.651 268.505L50.2416 271.199L56.1742 260.789L55.1151 249.032L68.0277 252.375L83.0322 248.993Z" fill="#FFA20D"/>
</g>
<g filter="url(#filter4_f_2072_84)">
<path d="M69.707 253.499L67.7357 258.062L72.3196 257.986L67.981 260.124L73.6984 266.587L66.7293 261.935L69.7698 276.577L64.7138 262.436L61.1439 265.894L63.1152 261.331L50.8373 261.365L62.8699 259.269L59.9573 255.919L64.1216 257.457L64.5864 252.643L66.1371 256.957L69.707 253.499Z" fill="white"/>
</g>
<g filter="url(#filter5_f_2072_84)">
<path d="M261.629 301.26L270.259 310.155L283.293 310.531L276.446 320.807L278.808 332.388L269.512 324.834L259.509 324.821L263.326 314.182L261.629 301.26Z" fill="#FFA20D"/>
</g>
<g filter="url(#filter6_f_2072_84)">
<path d="M197.276 318.125L200.101 330.193L211.085 337.22L199.927 342.509L197.369 352.51L191.91 342.396L183.338 337.24L192.084 330.08L197.276 318.125Z" fill="#FFA20D"/>
</g>
<g filter="url(#filter7_f_2072_84)">
<path d="M130.373 301.618L126.774 313.478L132.762 325.062L120.455 324.052L108.794 332.223L113.573 319.938L108.736 311.183L119.892 309.365L130.373 301.618Z" fill="#FFA20D"/>
</g>
<g filter="url(#filter8_f_2072_84)">
<path d="M281.104 42.4574L281.131 52.4543L287.982 65.7067L273.902 64.551L262.38 77.1496L266.028 59.845L260.494 49.8276L273.257 47.7483L281.104 42.4574Z" fill="#FFA20D"/>
</g>
<g filter="url(#filter9_f_2072_84)">
<path d="M340.811 102.811L337.013 110.267L337.935 125.059L325.597 118.37L310.077 125.211L320.322 110.939L319.302 99.6158L331.738 102.835L340.811 102.811Z" fill="#FFA20D"/>
</g>
<g filter="url(#filter10_f_2072_84)">
<path d="M333 190.709L341.391 187.247L349.246 174.5L355.535 187.208L372.33 190.602L355.56 196.415L349.806 206.355L341.416 196.453L333 190.709Z" fill="#FFA20D"/>
</g>
<g filter="url(#filter11_f_2072_84)">
<path d="M197.58 20L201.44 29.8183L213.65 37.6297L201.247 43.5093L197.688 59.711L192.335 43.3833L182.807 37.6515L192.528 29.6923L197.58 20Z" fill="#FFA20D"/>
</g>
<g filter="url(#filter12_f_2072_84)">
<path d="M111.581 45.1191L119.987 49.8306L135.74 50.285L127.464 62.7045L133.207 79.8019L119.084 67.5715L106.994 67.5562L111.607 54.6976L111.581 45.1191Z" fill="#FFA20D"/>
</g>
<g filter="url(#filter13_f_2072_84)">
<path d="M49.707 107.649L59.284 107.623L70.8494 99.1729L71.8254 112.702L85.4747 121.779L68.5195 120.866L59.8296 127.59L55.9781 115.787L49.707 107.649Z" fill="#FFA20D"/>
</g>
<g filter="url(#filter14_f_2072_84)">
<path d="M348.756 181.678L346.837 186.117L355.727 185.014L347.076 188.124L355.758 196.575L345.858 189.886L346.888 204.839L343.897 190.373L340.423 193.738L342.342 189.298L337.881 189.372L342.103 187.292L339.269 184.032L343.321 185.529L343.773 180.845L345.282 185.042L348.756 181.678Z" fill="white"/>
</g>
<g filter="url(#filter15_f_2072_84)">
<path d="M68.1551 109.173L66.3201 113.42L70.5869 113.349L66.5484 115.339L75.9545 117.457L65.3833 117.026L64.9507 121.507L63.5072 117.491L52.5897 127.028L62.0192 116.463L57.7524 116.534L61.7909 114.544L52.539 108.406L62.956 112.857L63.3886 108.376L64.8321 112.392L68.1551 109.173Z" fill="white"/>
</g>
<g filter="url(#filter16_f_2072_84)">
<path d="M124.3 311.641L122.63 315.508L129.597 314.968L122.838 317.255L125.306 320.094L121.777 318.79L121.806 329.35L120.069 319.214L117.044 322.144L118.714 318.278L109.617 318.303L118.507 316.531L116.038 313.692L119.567 314.996L120.035 306.57L121.275 314.572L124.3 311.641Z" fill="white"/>
</g>
<g filter="url(#filter17_f_2072_84)">
<path d="M201.11 330.388L199.44 334.254L203.324 334.19L199.648 336.002L202.116 338.841L198.587 337.537L197.589 353L196.879 337.961L193.854 340.891L195.524 337.025L191.64 337.089L195.317 335.277L190.441 329.163L196.377 333.742L196.771 329.663L198.085 333.318L201.11 330.388Z" fill="white"/>
</g>
<g filter="url(#filter18_f_2072_84)">
<path d="M272.86 312.68L271.19 316.546L275.074 316.481L271.398 318.293L277.324 323.151L270.337 319.828L270.363 329.505L268.629 320.252L265.604 323.183L267.275 319.316L263.39 319.381L267.067 317.569L259.167 311.387L268.127 316.034L268.102 306.587L269.835 315.61L272.86 312.68Z" fill="white"/>
</g>
<g filter="url(#filter19_f_2072_84)">
<path d="M333.839 257.077L331.974 261.394L336.311 261.322L332.206 263.346L334.962 266.517L331.021 265.06L330.581 269.617L329.114 265.534L323.291 274.875L327.601 264.488L323.263 264.56L327.369 262.537L315.863 256.302L328.553 260.823L328.993 256.266L330.461 260.349L333.839 257.077Z" fill="white"/>
</g>
<g filter="url(#filter20_f_2072_84)">
<path d="M334.008 100.936L329.618 110.162L334.033 110.089L329.855 112.148L338.156 118.503L328.649 113.893L328.201 118.53L326.708 114.375L312.085 122.629L325.168 113.311L320.753 113.384L324.932 111.325L322.127 108.098L326.138 109.58L326.585 104.943L328.079 109.099L334.008 100.936Z" fill="white"/>
</g>
<g filter="url(#filter21_f_2072_84)">
<path d="M280.155 48.7681L274.004 55.9345L278.448 55.8608L274.242 57.9336L278.86 62.5786L273.028 59.6901L272.578 64.3576L271.074 60.1749L263.362 67.8983L269.524 59.1042L265.08 59.1779L269.287 57.1051L266.463 53.8568L270.5 55.3486L270.951 50.6811L272.454 54.8638L280.155 48.7681Z" fill="white"/>
</g>
<g filter="url(#filter22_f_2072_84)">
<path d="M122.985 53.2609L120.966 57.9338L125.66 57.8559L121.217 60.0457L124.2 63.4773L119.935 61.9013L119.375 73.7942L117.871 62.4135L114.214 65.9552L116.233 61.2823L107.294 61.9356L115.982 59.1704L107.273 54.2571L117.264 57.3149L117.224 42.7132L119.328 56.8026L122.985 53.2609Z" fill="white"/>
</g>
<g filter="url(#filter23_f_2072_84)">
<path d="M200.328 30.3644L198.472 34.6621L207.176 34.6384L198.703 36.6045L201.446 39.7605L197.524 38.3111L197.552 48.7465L195.625 38.7822L192.262 42.0396L194.119 37.7418L189.801 37.8135L193.888 35.7995L191.145 32.6434L195.067 34.0929L195.588 25.1074L196.966 33.6218L200.328 30.3644Z" fill="white"/>
</g>
<defs>
<filter id="filter0_d_2072_84" x="36.1279" y="28.055" width="321.626" height="321.57" filterUnits="userSpaceOnUse" color-interpolation-filters="sRGB">
<feFlood flood-opacity="0" result="BackgroundImageFix"/>
<feColorMatrix in="SourceAlpha" type="matrix" values="0 0 0 0 0 0 0 0 0 0 0 0 0 0 0 0 0 0 127 0" result="hardAlpha"/>
<feOffset dy="3"/>
<feGaussianBlur stdDeviation="1.65"/>
<feComposite in2="hardAlpha" operator="out"/>
<feColorMatrix type="matrix" values="0 0 0 0 0.243333 0 0 0 0 0.0440434 0 0 0 0 0.0219 0 0 0 0.16 0"/>
<feBlend mode="normal" in2="BackgroundImageFix" result="effect1_dropShadow_2072_84"/>
<feBlend mode="normal" in="SourceGraphic" in2="effect1_dropShadow_2072_84" result="shape"/>
</filter>
<filter id="filter1_f_2072_84" x="0" y="152.999" width="77.2423" height="71.9017" filterUnits="userSpaceOnUse" color-interpolation-filters="sRGB">
<feFlood flood-opacity="0" result="BackgroundImageFix"/>
<feBlend mode="normal" in="SourceGraphic" in2="BackgroundImageFix" result="shape"/>
<feGaussianBlur stdDeviation="10" result="effect1_foregroundBlur_2072_84"/>
</filter>
<filter id="filter2_f_2072_84" x="26.0334" y="172" width="30.3197" height="29.5493" filterUnits="userSpaceOnUse" color-interpolation-filters="sRGB">
<feFlood flood-opacity="0" result="BackgroundImageFix"/>
<feBlend mode="normal" in="SourceGraphic" in2="BackgroundImageFix" result="shape"/>
<feGaussianBlur stdDeviation="2.5" result="effect1_foregroundBlur_2072_84"/>
</filter>
<filter id="filter3_f_2072_84" x="30.2416" y="228.993" width="72.7906" height="66.4559" filterUnits="userSpaceOnUse" color-interpolation-filters="sRGB">
<feFlood flood-opacity="0" result="BackgroundImageFix"/>
<feBlend mode="normal" in="SourceGraphic" in2="BackgroundImageFix" result="shape"/>
<feGaussianBlur stdDeviation="10" result="effect1_foregroundBlur_2072_84"/>
</filter>
<filter id="filter4_f_2072_84" x="45.8373" y="247.643" width="32.8611" height="33.9344" filterUnits="userSpaceOnUse" color-interpolation-filters="sRGB">
<feFlood flood-opacity="0" result="BackgroundImageFix"/>
<feBlend mode="normal" in="SourceGraphic" in2="BackgroundImageFix" result="shape"/>
<feGaussianBlur stdDeviation="2.5" result="effect1_foregroundBlur_2072_84"/>
</filter>
<filter id="filter5_f_2072_84" x="239.509" y="281.26" width="63.7839" height="71.1288" filterUnits="userSpaceOnUse" color-interpolation-filters="sRGB">
<feFlood flood-opacity="0" result="BackgroundImageFix"/>
<feBlend mode="normal" in="SourceGraphic" in2="BackgroundImageFix" result="shape"/>
<feGaussianBlur stdDeviation="10" result="effect1_foregroundBlur_2072_84"/>
</filter>
<filter id="filter6_f_2072_84" x="163.339" y="298.125" width="67.7464" height="74.3848" filterUnits="userSpaceOnUse" color-interpolation-filters="sRGB">
<feFlood flood-opacity="0" result="BackgroundImageFix"/>
<feBlend mode="normal" in="SourceGraphic" in2="BackgroundImageFix" result="shape"/>
<feGaussianBlur stdDeviation="10" result="effect1_foregroundBlur_2072_84"/>
</filter>
<filter id="filter7_f_2072_84" x="88.7365" y="281.618" width="64.0257" height="70.6044" filterUnits="userSpaceOnUse" color-interpolation-filters="sRGB">
<feFlood flood-opacity="0" result="BackgroundImageFix"/>
<feBlend mode="normal" in="SourceGraphic" in2="BackgroundImageFix" result="shape"/>
<feGaussianBlur stdDeviation="10" result="effect1_foregroundBlur_2072_84"/>
</filter>
<filter id="filter8_f_2072_84" x="240.494" y="22.4574" width="67.4878" height="74.6923" filterUnits="userSpaceOnUse" color-interpolation-filters="sRGB">
<feFlood flood-opacity="0" result="BackgroundImageFix"/>
<feBlend mode="normal" in="SourceGraphic" in2="BackgroundImageFix" result="shape"/>
<feGaussianBlur stdDeviation="10" result="effect1_foregroundBlur_2072_84"/>
</filter>
<filter id="filter9_f_2072_84" x="290.077" y="79.6157" width="70.7339" height="65.5957" filterUnits="userSpaceOnUse" color-interpolation-filters="sRGB">
<feFlood flood-opacity="0" result="BackgroundImageFix"/>
<feBlend mode="normal" in="SourceGraphic" in2="BackgroundImageFix" result="shape"/>
<feGaussianBlur stdDeviation="10" result="effect1_foregroundBlur_2072_84"/>
</filter>
<filter id="filter10_f_2072_84" x="313" y="154.5" width="79.3305" height="71.8558" filterUnits="userSpaceOnUse" color-interpolation-filters="sRGB">
<feFlood flood-opacity="0" result="BackgroundImageFix"/>
<feBlend mode="normal" in="SourceGraphic" in2="BackgroundImageFix" result="shape"/>
<feGaussianBlur stdDeviation="10" result="effect1_foregroundBlur_2072_84"/>
</filter>
<filter id="filter11_f_2072_84" x="162.807" y="0" width="70.8434" height="79.7111" filterUnits="userSpaceOnUse" color-interpolation-filters="sRGB">
<feFlood flood-opacity="0" result="BackgroundImageFix"/>
<feBlend mode="normal" in="SourceGraphic" in2="BackgroundImageFix" result="shape"/>
<feGaussianBlur stdDeviation="10" result="effect1_foregroundBlur_2072_84"/>
</filter>
<filter id="filter12_f_2072_84" x="86.9938" y="25.119" width="68.7466" height="74.6829" filterUnits="userSpaceOnUse" color-interpolation-filters="sRGB">
<feFlood flood-opacity="0" result="BackgroundImageFix"/>
<feBlend mode="normal" in="SourceGraphic" in2="BackgroundImageFix" result="shape"/>
<feGaussianBlur stdDeviation="10" result="effect1_foregroundBlur_2072_84"/>
</filter>
<filter id="filter13_f_2072_84" x="29.707" y="79.1729" width="75.7677" height="68.4174" filterUnits="userSpaceOnUse" color-interpolation-filters="sRGB">
<feFlood flood-opacity="0" result="BackgroundImageFix"/>
<feBlend mode="normal" in="SourceGraphic" in2="BackgroundImageFix" result="shape"/>
<feGaussianBlur stdDeviation="10" result="effect1_foregroundBlur_2072_84"/>
</filter>
<filter id="filter14_f_2072_84" x="332.881" y="175.845" width="27.8769" height="33.9939" filterUnits="userSpaceOnUse" color-interpolation-filters="sRGB">
<feFlood flood-opacity="0" result="BackgroundImageFix"/>
<feBlend mode="normal" in="SourceGraphic" in2="BackgroundImageFix" result="shape"/>
<feGaussianBlur stdDeviation="2.5" result="effect1_foregroundBlur_2072_84"/>
</filter>
<filter id="filter15_f_2072_84" x="47.5391" y="103.376" width="33.4154" height="28.652" filterUnits="userSpaceOnUse" color-interpolation-filters="sRGB">
<feFlood flood-opacity="0" result="BackgroundImageFix"/>
<feBlend mode="normal" in="SourceGraphic" in2="BackgroundImageFix" result="shape"/>
<feGaussianBlur stdDeviation="2.5" result="effect1_foregroundBlur_2072_84"/>
</filter>
<filter id="filter16_f_2072_84" x="104.617" y="301.57" width="29.9799" height="32.7798" filterUnits="userSpaceOnUse" color-interpolation-filters="sRGB">
<feFlood flood-opacity="0" result="BackgroundImageFix"/>
<feBlend mode="normal" in="SourceGraphic" in2="BackgroundImageFix" result="shape"/>
<feGaussianBlur stdDeviation="2.5" result="effect1_foregroundBlur_2072_84"/>
</filter>
<filter id="filter17_f_2072_84" x="185.441" y="324.163" width="22.8825" height="33.8369" filterUnits="userSpaceOnUse" color-interpolation-filters="sRGB">
<feFlood flood-opacity="0" result="BackgroundImageFix"/>
<feBlend mode="normal" in="SourceGraphic" in2="BackgroundImageFix" result="shape"/>
<feGaussianBlur stdDeviation="2.5" result="effect1_foregroundBlur_2072_84"/>
</filter>
<filter id="filter18_f_2072_84" x="254.167" y="301.587" width="28.1573" height="32.9182" filterUnits="userSpaceOnUse" color-interpolation-filters="sRGB">
<feFlood flood-opacity="0" result="BackgroundImageFix"/>
<feBlend mode="normal" in="SourceGraphic" in2="BackgroundImageFix" result="shape"/>
<feGaussianBlur stdDeviation="2.5" result="effect1_foregroundBlur_2072_84"/>
</filter>
<filter id="filter19_f_2072_84" x="310.863" y="251.266" width="30.4481" height="28.6088" filterUnits="userSpaceOnUse" color-interpolation-filters="sRGB">
<feFlood flood-opacity="0" result="BackgroundImageFix"/>
<feBlend mode="normal" in="SourceGraphic" in2="BackgroundImageFix" result="shape"/>
<feGaussianBlur stdDeviation="2.5" result="effect1_foregroundBlur_2072_84"/>
</filter>
<filter id="filter20_f_2072_84" x="307.085" y="95.9359" width="36.071" height="31.6935" filterUnits="userSpaceOnUse" color-interpolation-filters="sRGB">
<feFlood flood-opacity="0" result="BackgroundImageFix"/>
<feBlend mode="normal" in="SourceGraphic" in2="BackgroundImageFix" result="shape"/>
<feGaussianBlur stdDeviation="2.5" result="effect1_foregroundBlur_2072_84"/>
</filter>
<filter id="filter21_f_2072_84" x="258.362" y="43.7682" width="26.7935" height="29.1301" filterUnits="userSpaceOnUse" color-interpolation-filters="sRGB">
<feFlood flood-opacity="0" result="BackgroundImageFix"/>
<feBlend mode="normal" in="SourceGraphic" in2="BackgroundImageFix" result="shape"/>
<feGaussianBlur stdDeviation="2.5" result="effect1_foregroundBlur_2072_84"/>
</filter>
<filter id="filter22_f_2072_84" x="102.273" y="37.7133" width="28.3875" height="41.0809" filterUnits="userSpaceOnUse" color-interpolation-filters="sRGB">
<feFlood flood-opacity="0" result="BackgroundImageFix"/>
<feBlend mode="normal" in="SourceGraphic" in2="BackgroundImageFix" result="shape"/>
<feGaussianBlur stdDeviation="2.5" result="effect1_foregroundBlur_2072_84"/>
</filter>
<filter id="filter23_f_2072_84" x="184.801" y="20.1074" width="27.3742" height="33.639" filterUnits="userSpaceOnUse" color-interpolation-filters="sRGB">
<feFlood flood-opacity="0" result="BackgroundImageFix"/>
<feBlend mode="normal" in="SourceGraphic" in2="BackgroundImageFix" result="shape"/>
<feGaussianBlur stdDeviation="2.5" result="effect1_foregroundBlur_2072_84"/>
</filter>
<radialGradient id="paint0_radial_2072_84" cx="0" cy="0" r="1" gradientUnits="userSpaceOnUse" gradientTransform="translate(367.067 197) rotate(-179.932) scale(181.565 181.597)">
<stop stop-color="#920F00"/>
<stop offset="0.854425" stop-color="#D23B2A"/>
<stop offset="1" stop-color="#A01809"/>
</radialGradient>
</defs>
</svg>
